<svg width="42" height="36" viewBox="0 0 42 36" fill="none" xmlns="http://www.w3.org/2000/svg">
<path d="M31.6901 24.6659C29.7728 24.7761 27.0959 25.6767 23.2649 27.5001C21.0492 28.5546 19.8307 28.0693 18.4195 27.5072C17.9765 27.321 17.5233 27.1601 17.0621 27.0253C18.2294 26.803 19.424 26.7618 20.6039 26.9032C21.0669 26.9558 21.5337 26.9681 21.9988 26.9398C23.7913 26.7321 24.3909 26.0008 24.5782 25.4241C24.6708 25.1124 24.6751 24.7812 24.5907 24.4672C24.5064 24.1531 24.3366 23.8687 24.1003 23.6453C23.6948 23.2723 23.1137 23.2415 22.2342 23.1943C20.6097 23.1337 18.9991 22.8719 17.439 22.4149C13.4713 21.2739 8.87234 22.9236 6.71964 25.1777C6.348 25.567 5.6541 25.7363 4.91919 25.9152L4.76577 25.9532L4.47701 25.3699C4.33998 25.0944 4.09925 24.8846 3.80766 24.7864C3.51607 24.6882 3.19743 24.7097 2.92168 24.8462L1.62909 25.4867C1.36409 25.6232 1.16072 25.8551 1.06001 26.1357C0.959289 26.4162 0.96872 26.7246 1.0864 26.9984L4.2341 34.9193C4.2896 35.0593 4.37388 35.1861 4.48149 35.2915C4.5891 35.3969 4.71764 35.4786 4.85879 35.5312C5.01122 35.5895 5.17406 35.6157 5.3371 35.6081C5.50013 35.6005 5.65984 35.5593 5.80619 35.4871L7.72303 34.5375C7.96568 34.4169 8.15848 34.2152 8.26799 33.9673C8.3775 33.7195 8.39682 33.4411 8.32259 33.1805C9.79857 32.8719 11.5519 33.3194 13.3959 33.7893C15.0963 34.2959 16.8534 34.5873 18.6262 34.657C19.828 34.6689 21.0204 34.4442 22.1355 33.9957C22.1939 33.9719 22.2479 33.9384 22.295 33.8965C28.7456 28.1742 35.2778 27.2903 35.3443 27.2837C35.4432 27.2713 35.537 27.2327 35.6159 27.1718C35.6949 27.111 35.7561 27.0301 35.7932 26.9376C35.8304 26.8452 35.8421 26.7444 35.8272 26.6459C35.8123 26.5474 35.7713 26.4546 35.7085 26.3773C35.2455 25.7671 34.6312 25.2882 33.9265 24.9881C33.2218 24.6879 32.4509 24.5769 31.6901 24.6659ZM7.24823 33.5098C7.2466 33.5151 7.24392 33.5201 7.24036 33.5243C7.23681 33.5285 7.23243 33.532 7.22751 33.5345L5.31023 34.4846C5.29634 34.4906 5.28088 34.492 5.26614 34.4885L2.12417 26.5862C2.10521 26.5382 2.11139 26.4936 2.12417 26.487L3.41984 25.8465C3.42492 25.8443 3.4304 25.8431 3.43593 25.8431C3.44147 25.8431 3.44695 25.8443 3.45203 25.8465C3.45732 25.8481 3.46223 25.8508 3.46647 25.8543C3.47071 25.8579 3.47419 25.8623 3.47671 25.8672L7.24646 33.4772C7.24895 33.4823 7.25039 33.4877 7.2507 33.4934C7.251 33.499 7.25016 33.5046 7.24823 33.5098ZM30.9032 27.3599C27.4995 28.6691 24.3579 30.5774 21.6271 32.9945C18.9476 34.0495 16.2659 33.3661 13.6715 32.7053C11.5937 32.1763 9.62179 31.6737 7.83324 32.1463L5.27143 26.9786C6.10156 26.7758 6.94668 26.5532 7.52464 25.9496C9.40621 23.979 13.6128 22.4779 17.1278 23.4888C18.7694 23.97 20.4643 24.2458 22.1738 24.3101C22.5708 24.2936 22.9676 24.3463 23.3465 24.4657C23.4254 24.5443 23.4826 24.6419 23.5126 24.7491C23.5426 24.8564 23.5443 24.9695 23.5175 25.0776C23.3976 25.4479 22.7976 25.7217 21.8718 25.8271C21.4768 25.8444 21.0811 25.8315 20.6881 25.7883C19.079 25.6666 16.5194 25.4726 14.4919 26.994L14.476 27.0059C14.1848 27.2263 13.915 27.4737 13.6702 27.7448C13.6179 27.7986 13.5769 27.8623 13.5498 27.9323C13.5227 28.0022 13.51 28.0769 13.5124 28.1519C13.5147 28.2269 13.5322 28.3006 13.5637 28.3687C13.5952 28.4368 13.6401 28.4978 13.6957 28.5482C13.7513 28.5985 13.8165 28.6372 13.8873 28.6618C13.9582 28.6864 14.0333 28.6965 14.1081 28.6915C14.183 28.6864 14.256 28.6664 14.3229 28.6325C14.3899 28.5986 14.4493 28.5516 14.4976 28.4942C14.6692 28.3082 14.8542 28.135 15.0509 27.9758C16.1949 27.8219 17.0753 28.1729 18.0046 28.5436C19.4493 29.1194 21.0875 29.7718 23.7432 28.5075C27.4394 26.7485 29.9844 25.8817 31.7527 25.7799C32.59 25.6803 33.4347 25.8918 34.1263 26.3742C33.0304 26.628 31.9535 26.9573 30.9032 27.3599ZM6.10906 32.6656C6.17131 32.7979 6.17922 32.9493 6.13111 33.0873C6.08299 33.2253 5.98268 33.339 5.8517 33.4039C5.72072 33.4688 5.56951 33.4798 5.43053 33.4345C5.29155 33.3892 5.17587 33.2912 5.10832 33.1616L4.78914 32.517C4.72689 32.3848 4.71897 32.2334 4.76709 32.0953C4.81521 31.9573 4.91552 31.8436 5.0465 31.7787C5.17748 31.7138 5.32868 31.7028 5.46767 31.7481C5.60665 31.7934 5.72233 31.8914 5.78988 32.0211L6.10906 32.6656ZM15.2224 13.5325C15.1978 13.4634 15.187 13.3902 15.1907 13.317C15.1944 13.2437 15.2125 13.1719 15.2439 13.1057C15.2753 13.0395 15.3195 12.9801 15.3739 12.9309C15.4283 12.8817 15.4919 12.8438 15.561 12.8192L17.5964 12.0936C17.7349 12.048 17.8856 12.0584 18.0165 12.1225C18.1474 12.1866 18.2481 12.2992 18.297 12.4365C18.346 12.5738 18.3394 12.7248 18.2786 12.8572C18.2178 12.9896 18.1076 13.0931 17.9716 13.1454L15.9357 13.8724C15.8667 13.8972 15.7934 13.908 15.7201 13.9044C15.6469 13.9008 15.575 13.8827 15.5087 13.8513C15.4425 13.8198 15.3831 13.7756 15.3339 13.7211C15.2848 13.6666 15.2469 13.603 15.2224 13.5338V13.5325ZM41.7398 5.60991C41.7351 5.45953 41.699 5.31181 41.6337 5.17627C41.5683 5.04072 41.4754 4.92038 41.3607 4.82298C41.2372 4.71628 41.0931 4.63619 40.9373 4.58771C40.7815 4.53924 40.6174 4.52343 40.4552 4.54128L38.3289 4.77978C38.0598 4.81036 37.8098 4.93411 37.6223 5.12959C37.4348 5.32508 37.3215 5.57999 37.3022 5.85017C35.8103 5.63548 34.3145 4.61578 32.742 3.54627C30.4672 1.99666 27.889 0.239855 24.5981 0.368144C24.5671 0.369125 24.5363 0.372814 24.5059 0.379166C21.8352 0.935524 20.2583 2.56581 18.4323 4.45355C17.4419 5.514 16.3888 6.51418 15.2788 7.44871L11.5276 8.7845C11.0723 8.94748 10.7002 9.28438 10.4929 9.72132C10.2856 10.1583 10.2601 10.6596 10.4219 11.1153L13.0353 18.4441C13.1156 18.6699 13.2397 18.8777 13.4004 19.0555C13.5611 19.2334 13.7553 19.3778 13.9719 19.4805C14.1884 19.5832 14.4231 19.6422 14.6625 19.654C14.9019 19.6659 15.1413 19.6305 15.367 19.5497L29.2156 14.6122C30.0124 14.7683 30.8226 14.8467 31.6346 14.8463C33.1673 14.8741 34.6868 14.5577 36.081 13.9205C36.5633 13.6815 37.2735 13.7596 38.0252 13.8416L38.1821 13.8587L38.2549 14.5055C38.2869 14.7885 38.4219 15.0498 38.6342 15.2397C38.8464 15.4296 39.1211 15.5349 39.4059 15.5353C39.4501 15.5355 39.4943 15.5331 39.5382 15.5283L40.9719 15.3673C41.2673 15.3294 41.5373 15.181 41.7277 14.9519C41.9181 14.7229 42.0147 14.4303 41.9982 14.133L41.7398 5.60991ZM14.991 18.4979C14.8142 18.5598 14.6202 18.5496 14.451 18.4693C14.2818 18.3891 14.1511 18.2454 14.0872 18.0693L11.4738 10.7401C11.411 10.5634 11.4209 10.369 11.5014 10.1995C11.5818 10.0301 11.7261 9.89949 11.9028 9.83638L15.7409 8.46973L23.5973 5.75539C23.9107 5.7823 24.2184 5.85539 24.5103 5.97229C24.6799 6.03907 24.8449 6.11667 25.0045 6.20462L22.4974 7.09603C22.4361 7.07707 22.3757 7.05988 22.3184 7.04621C20.5625 6.62916 19.7491 7.1119 19.3761 7.59023C19.2106 7.80416 19.1011 8.05599 19.0574 8.32293L14.2922 10.0224C14.1859 10.0603 14.0936 10.1294 14.0274 10.2208C13.9612 10.3122 13.9243 10.4215 13.9214 10.5343C13.915 10.7872 13.8557 11.036 13.7472 11.2646C13.6388 11.4933 13.4837 11.6966 13.2919 11.8617C13.2063 11.9352 13.1449 12.0329 13.1159 12.142C13.087 12.2511 13.0918 12.3664 13.1297 12.4727L14.2732 15.6799C14.3112 15.7862 14.3805 15.8784 14.472 15.9445C14.5634 16.0106 14.6727 16.0475 14.7855 16.0502C15.0385 16.0568 15.2873 16.1163 15.5159 16.2248C15.7445 16.3333 15.9479 16.4884 16.1129 16.6802C16.1865 16.7658 16.2842 16.8271 16.3933 16.856C16.5024 16.8849 16.6177 16.88 16.724 16.842L26.0873 13.503C26.4986 13.7263 26.9248 13.9213 27.3627 14.0867L14.991 18.4979ZM26.5969 8.0496L26.8032 8.628C25.8403 8.45911 24.9047 8.16074 24.0219 7.741L25.12 7.34908C25.5363 7.71694 26.0484 7.95909 26.5969 8.04739V8.0496ZM19.2307 9.44711C19.2886 9.55319 19.3618 9.65019 19.448 9.73499C19.0814 10.0345 18.8165 10.4402 18.6897 10.8963C18.5629 11.3524 18.5804 11.8366 18.7398 12.2823C18.8992 12.7281 19.1927 13.1135 19.58 13.3858C19.9673 13.658 20.4294 13.8037 20.9028 13.8028C21.1645 13.8032 21.4243 13.7585 21.6708 13.6705C22.095 13.5187 22.4653 13.2455 22.7354 12.885C23.0056 12.5244 23.1639 12.0923 23.1904 11.6426C23.7071 11.9393 24.2771 12.2994 24.8978 12.7425L16.683 15.6711C16.2669 15.3024 15.7548 15.0595 15.2061 14.9706L14.301 12.4304C14.6695 12.0144 14.9122 11.5024 15.0011 10.9539L19.2307 9.44711ZM21.96 10.995C21.9786 11.0336 21.9952 11.0732 22.0098 11.1135C22.0883 11.3327 22.1001 11.5701 22.0436 11.7959C21.9871 12.0217 21.8649 12.2257 21.6925 12.3821C21.5201 12.5384 21.3052 12.6401 21.075 12.6743C20.8447 12.7085 20.6095 12.6736 20.3991 12.5741C20.1887 12.4746 20.0125 12.315 19.8929 12.1153C19.7732 11.9157 19.7155 11.685 19.7269 11.4525C19.7384 11.2201 19.8185 10.9962 19.9572 10.8093C20.0959 10.6224 20.2869 10.4808 20.5061 10.4024C20.5277 10.3945 20.5501 10.3888 20.5709 10.3826L20.8182 10.488C21.1422 10.6229 21.5235 10.7864 21.96 10.995ZM35.5824 12.9188C33.141 14.1285 28.6747 14.103 25.7161 11.9534C24.3375 10.9405 22.8386 10.1025 21.2537 9.45857C20.876 9.3378 20.522 9.15239 20.2076 8.91059C20.1603 8.8098 20.1399 8.69851 20.1483 8.58752C20.1568 8.47652 20.1937 8.36958 20.2556 8.27708C20.495 7.96848 21.1519 7.91778 22.0587 8.13292C22.4352 8.2518 22.802 8.39918 23.156 8.57378C24.2723 9.07767 25.8893 9.80817 27.6638 9.80817C28.248 9.81032 28.8294 9.72579 29.3888 9.55732L29.4122 9.55027C29.7576 9.44328 30.0924 9.3044 30.4121 9.13542L30.4191 9.13146C30.55 9.0623 30.6481 8.94397 30.6917 8.80251C30.7354 8.66105 30.721 8.50805 30.6519 8.37715C30.5827 8.24626 30.4644 8.1482 30.3229 8.10455C30.1815 8.06089 30.0285 8.07522 29.8976 8.14438C29.6729 8.2609 29.44 8.36066 29.2006 8.44284C28.1055 8.20698 27.7841 7.71014 27.3464 7.03211C26.8099 6.06874 25.9515 5.32491 24.9217 4.93099C24.4838 4.75639 24.0204 4.65468 23.5497 4.62989C23.4783 4.62634 23.407 4.63651 23.3394 4.65987L17.9711 6.51586C18.4226 6.07148 18.8401 5.63989 19.2351 5.23165C20.9914 3.41577 22.381 1.97903 24.688 1.48439C27.5897 1.39049 29.8901 2.95596 32.1133 4.47118C33.8856 5.67824 35.5687 6.82535 37.4102 6.99022L38.053 12.7213C37.2034 12.6283 36.3314 12.5485 35.5837 12.9188H35.5824ZM40.8422 14.2568L39.4086 14.4177C39.3974 14.4186 39.3862 14.4152 39.3775 14.4082C39.3687 14.4011 39.363 14.391 39.3614 14.3798L38.4158 5.9379C38.4152 5.93237 38.4158 5.92678 38.4175 5.92148C38.4191 5.91617 38.4219 5.91126 38.4255 5.90704C38.4325 5.8982 38.4426 5.89237 38.4537 5.89073L40.5795 5.65267H40.5839C40.5977 5.65306 40.6111 5.65718 40.6227 5.66457L40.8766 14.1643C40.8793 14.2154 40.8586 14.2551 40.8436 14.2568H40.8422ZM40.397 7.68104C40.4133 7.82822 40.3706 7.97588 40.2782 8.09159C40.1858 8.20731 40.0513 8.28163 39.9041 8.29824C39.8832 8.3005 39.8621 8.30168 39.8411 8.30177C39.7038 8.30154 39.5715 8.25081 39.4693 8.15925C39.3671 8.0677 39.3022 7.94173 39.2869 7.80537L39.2067 7.09074C39.1974 7.0173 39.2028 6.94275 39.2226 6.87142C39.2423 6.80009 39.2761 6.7334 39.3219 6.67523C39.3677 6.61706 39.4245 6.56857 39.4892 6.53257C39.5539 6.49658 39.6251 6.4738 39.6987 6.46556C39.7722 6.45733 39.8467 6.46379 39.9177 6.48458C39.9888 6.50538 40.055 6.54008 40.1125 6.58669C40.17 6.63329 40.2177 6.69086 40.2527 6.75605C40.2878 6.82124 40.3096 6.89275 40.3167 6.96642L40.397 7.68104Z" fill="black"/>
<mask id="mask0_629_1022" style="mask-type:alpha" maskUnits="userSpaceOnUse" x="0" y="0" width="42" height="36">
<path d="M31.474 24.6549C29.5567 24.7651 26.8799 25.6658 23.0488 27.4892C20.8331 28.5437 19.6146 28.0583 18.2034 27.4962C17.7604 27.3101 17.3072 27.1492 16.846 27.0144C18.0133 26.7921 19.208 26.7509 20.3878 26.8923C20.8508 26.9449 21.3176 26.9571 21.7827 26.9289C23.5752 26.7212 24.1748 25.9898 24.3621 25.4132C24.4547 25.1015 24.459 24.7702 24.3746 24.4562C24.2903 24.1422 24.1205 23.8577 23.8842 23.6344C23.4787 23.2614 22.8976 23.2305 22.0181 23.1834C20.3936 23.1228 18.783 22.861 17.2229 22.4039C13.2552 21.263 8.65624 22.9127 6.50355 25.1668C6.13191 25.556 5.438 25.7253 4.7031 25.9043L4.54968 25.9422L4.26092 25.359C4.12388 25.0835 3.88315 24.8736 3.59156 24.7755C3.29997 24.6773 2.98134 24.6988 2.70558 24.8352L1.413 25.4758C1.148 25.6123 0.944628 25.8442 0.843911 26.1248C0.743194 26.4053 0.752626 26.7136 0.870304 26.9875L4.01801 34.9083C4.07351 35.0484 4.15779 35.1752 4.2654 35.2806C4.37301 35.386 4.50155 35.4677 4.6427 35.5202C4.79513 35.5786 4.95797 35.6048 5.121 35.5972C5.28404 35.5896 5.44374 35.5484 5.5901 35.4762L7.50693 34.5266C7.74958 34.406 7.94238 34.2043 8.05189 33.9564C8.1614 33.7086 8.18072 33.4302 8.10649 33.1696C9.58248 32.861 11.3358 33.3085 13.1799 33.7784C14.8802 34.2849 16.6373 34.5764 18.4102 34.646C19.6119 34.6579 20.8043 34.4332 21.9194 33.9847C21.9778 33.961 22.0318 33.9275 22.0789 33.8856C28.5295 28.1633 35.0617 27.2793 35.1283 27.2727C35.2271 27.2603 35.3209 27.2217 35.3998 27.1609C35.4788 27.1 35.54 27.0192 35.5771 26.9267C35.6143 26.8342 35.626 26.7335 35.6111 26.635C35.5962 26.5364 35.5552 26.4437 35.4924 26.3663C35.0294 25.7561 34.4151 25.2773 33.7104 24.9772C33.0057 24.677 32.2348 24.566 31.474 24.6549ZM7.03213 33.4989C7.0305 33.5042 7.02783 33.5091 7.02427 33.5134C7.02071 33.5176 7.01634 33.5211 7.01141 33.5236L5.09413 34.4737C5.08025 34.4797 5.06479 34.4811 5.05005 34.4776L1.90808 26.5753C1.88912 26.5272 1.89529 26.4827 1.90808 26.4761L3.20375 25.8355C3.20883 25.8333 3.2143 25.8322 3.21984 25.8322C3.22537 25.8322 3.23085 25.8333 3.23593 25.8355C3.24122 25.8372 3.24613 25.8398 3.25037 25.8434C3.25461 25.847 3.2581 25.8513 3.26062 25.8563L7.03037 33.4663C7.03286 33.4713 7.0343 33.4768 7.0346 33.4824C7.0349 33.488 7.03406 33.4936 7.03213 33.4989ZM30.6871 27.349C27.2834 28.6582 24.1418 30.5665 21.4111 32.9836C18.7315 34.0385 16.0498 33.3552 13.4554 32.6944C11.3776 32.1653 9.40569 31.6628 7.61715 32.1354L5.05534 26.9677C5.88547 26.7649 6.73059 26.5422 7.30855 25.9387C9.19012 23.9681 13.3968 22.467 16.9117 23.4779C18.5533 23.959 20.2482 24.2349 21.9577 24.2992C22.3547 24.2827 22.7515 24.3354 23.1304 24.4548C23.2093 24.5333 23.2665 24.631 23.2965 24.7382C23.3265 24.8454 23.3282 24.9586 23.3014 25.0667C23.1815 25.437 22.5815 25.7108 21.6557 25.8161C21.2607 25.8335 20.865 25.8205 20.472 25.7773C18.8629 25.6557 16.3033 25.4617 14.2758 26.9831L14.2599 26.995C13.9687 27.2154 13.6989 27.4628 13.4541 27.7339C13.4018 27.7876 13.3609 27.8514 13.3337 27.9214C13.3066 27.9913 13.2939 28.066 13.2963 28.141C13.2986 28.2159 13.3161 28.2897 13.3476 28.3578C13.3791 28.4258 13.424 28.4869 13.4796 28.5372C13.5352 28.5876 13.6004 28.6262 13.6712 28.6508C13.7421 28.6755 13.8172 28.6856 13.892 28.6805C13.9669 28.6755 14.0399 28.6554 14.1068 28.6216C14.1738 28.5877 14.2332 28.5407 14.2815 28.4833C14.4531 28.2973 14.6381 28.124 14.8348 27.9649C15.9788 27.811 16.8592 28.1619 17.7885 28.5327C19.2332 29.1084 20.8714 29.7609 23.5272 28.4965C27.2233 26.7375 29.7683 25.8708 31.5366 25.769C32.3739 25.6694 33.2186 25.8808 33.9102 26.3632C32.8143 26.617 31.7374 26.9464 30.6871 27.349ZM5.89296 32.6547C5.95521 32.787 5.96313 32.9384 5.91501 33.0764C5.86689 33.2144 5.76658 33.3281 5.6356 33.393C5.50462 33.4579 5.35342 33.4689 5.21444 33.4236C5.07545 33.3783 4.95977 33.2803 4.89222 33.1506L4.57304 32.5061C4.5108 32.3738 4.50288 32.2225 4.551 32.0844C4.59911 31.9464 4.69942 31.8327 4.8304 31.7678C4.96138 31.7029 5.11259 31.6919 5.25157 31.7372C5.39055 31.7825 5.50623 31.8805 5.57378 32.0102L5.89296 32.6547ZM15.0063 13.5216C14.9817 13.4525 14.9709 13.3793 14.9746 13.306C14.9783 13.2328 14.9964 13.161 15.0278 13.0948C15.0592 13.0285 15.1034 12.9691 15.1578 12.92C15.2122 12.8708 15.2758 12.8329 15.3449 12.8083L17.3803 12.0826C17.5188 12.0371 17.6695 12.0475 17.8004 12.1116C17.9313 12.1756 18.032 12.2883 18.0809 12.4256C18.1299 12.5629 18.1233 12.7138 18.0625 12.8463C18.0017 12.9787 17.8915 13.0822 17.7555 13.1345L15.7196 13.8615C15.6506 13.8862 15.5773 13.8971 15.504 13.8935C15.4308 13.8898 15.3589 13.8718 15.2927 13.8403C15.2264 13.8089 15.167 13.7646 15.1178 13.7102C15.0687 13.6557 15.0308 13.5921 15.0063 13.5229V13.5216ZM41.5237 5.59898C41.519 5.44861 41.4829 5.30088 41.4176 5.16534C41.3523 5.0298 41.2593 4.90945 41.1446 4.81206C41.0211 4.70535 40.877 4.62526 40.7212 4.57679C40.5654 4.52832 40.4013 4.51251 40.2391 4.53035L38.1128 4.76885C37.8437 4.79944 37.5937 4.92318 37.4062 5.11867C37.2187 5.31415 37.1054 5.56906 37.0861 5.83925C35.5942 5.62455 34.0984 4.60486 32.5259 3.53534C30.2511 1.98574 27.673 0.22893 24.382 0.357219C24.351 0.3582 24.3202 0.361888 24.2898 0.36824C21.6191 0.924599 20.0422 2.55488 18.2162 4.44262C17.2258 5.50308 16.1727 6.50326 15.0627 7.43779L11.3115 8.77358C10.8562 8.93655 10.4841 9.27345 10.2768 9.7104C10.0695 10.1473 10.044 10.6486 10.2058 11.1044L12.8192 18.4332C12.8995 18.659 13.0236 18.8668 13.1843 19.0446C13.345 19.2225 13.5392 19.3669 13.7558 19.4696C13.9723 19.5723 14.207 19.6312 14.4464 19.6431C14.6858 19.655 14.9252 19.6196 15.1509 19.5388L28.9995 14.6012C29.7963 14.7573 30.6065 14.8357 31.4185 14.8353C32.9512 14.8632 34.4707 14.5468 35.8649 13.9095C36.3472 13.6706 37.0574 13.7486 37.8091 13.8306L37.966 13.8478L38.0388 14.4946C38.0708 14.7776 38.2058 15.0389 38.4181 15.2288C38.6303 15.4187 38.905 15.5239 39.1898 15.5244C39.234 15.5245 39.2782 15.5222 39.3221 15.5173L40.7558 15.3564C41.0512 15.3184 41.3212 15.17 41.5116 14.941C41.702 14.712 41.7987 14.4194 41.7821 14.122L41.5237 5.59898ZM14.7749 18.4869C14.5981 18.5489 14.4041 18.5387 14.2349 18.4584C14.0657 18.3782 13.935 18.2345 13.8711 18.0584L11.2577 10.7292C11.1949 10.5525 11.2048 10.358 11.2853 10.1886C11.3657 10.0192 11.5101 9.88856 11.6867 9.82546L15.5248 8.45881L23.3812 5.74447C23.6946 5.77137 24.0023 5.84446 24.2942 5.96137C24.4638 6.02814 24.6289 6.10575 24.7884 6.1937L22.2813 7.0851C22.22 7.06615 22.1596 7.04895 22.1023 7.03529C20.3464 6.61824 19.533 7.10098 19.16 7.5793C18.9945 7.79324 18.885 8.04507 18.8413 8.312L14.0761 10.0115C13.9698 10.0493 13.8775 10.1185 13.8113 10.2099C13.7451 10.3013 13.7082 10.4105 13.7053 10.5233C13.6989 10.7763 13.6396 11.0251 13.5312 11.2537C13.4227 11.4823 13.2676 11.6857 13.0758 11.8507C12.9902 11.9242 12.9288 12.022 12.8998 12.1311C12.8709 12.2402 12.8757 12.3555 12.9136 12.4618L14.0572 15.669C14.0951 15.7752 14.1644 15.8675 14.2559 15.9336C14.3473 15.9997 14.4566 16.0365 14.5694 16.0393C14.8224 16.0459 15.0712 16.1054 15.2998 16.2139C15.5284 16.3224 15.7318 16.4775 15.8968 16.6693C15.9704 16.7549 16.0681 16.8162 16.1772 16.8451C16.2863 16.874 16.4016 16.8691 16.5079 16.8311L25.8712 13.492C26.2825 13.7154 26.7087 13.9104 27.1466 14.0757L14.7749 18.4869ZM26.3808 8.03867L26.5871 8.61707C25.6243 8.44819 24.6887 8.14982 23.8058 7.73008L24.9039 7.33816C25.3202 7.70601 25.8324 7.94817 26.3808 8.03647V8.03867ZM19.0146 9.43618C19.0725 9.54227 19.1458 9.63926 19.2319 9.72406C18.8653 10.0236 18.6004 10.4292 18.4736 10.8853C18.3468 11.3414 18.3643 11.8256 18.5237 12.2714C18.6831 12.7171 18.9766 13.1026 19.3639 13.3749C19.7512 13.6471 20.2133 13.7928 20.6867 13.7918C20.9484 13.7923 21.2082 13.7475 21.4547 13.6596C21.8789 13.5078 22.2492 13.2346 22.5193 12.874C22.7895 12.5135 22.9478 12.0814 22.9743 11.6316C23.491 11.9283 24.061 12.2885 24.6818 12.7316L16.4669 15.6602C16.0509 15.2915 15.5387 15.0486 14.99 14.9597L14.0849 12.4194C14.4534 12.0035 14.6961 11.4915 14.785 10.943L19.0146 9.43618ZM21.7439 10.984C21.7625 11.0227 21.7791 11.0623 21.7937 11.1026C21.8722 11.3217 21.884 11.5592 21.8275 11.785C21.771 12.0108 21.6488 12.2148 21.4764 12.3711C21.304 12.5275 21.0891 12.6292 20.8589 12.6634C20.6286 12.6976 20.3934 12.6627 20.183 12.5632C19.9726 12.4637 19.7964 12.304 19.6768 12.1044C19.5571 11.9047 19.4994 11.6741 19.5108 11.4416C19.5223 11.2092 19.6024 10.9853 19.7411 10.7984C19.8798 10.6115 20.0708 10.4699 20.29 10.3915C20.3116 10.3836 20.334 10.3778 20.3548 10.3717L20.6021 10.477C20.9261 10.6119 21.3075 10.7755 21.7439 10.984ZM35.3663 12.9079C32.9249 14.1176 28.4586 14.0921 25.5 11.9424C24.1214 10.9296 22.6225 10.0916 21.0376 9.44765C20.6599 9.32687 20.3059 9.14146 19.9915 8.89966C19.9442 8.79888 19.9238 8.68759 19.9322 8.57659C19.9407 8.46559 19.9776 8.35866 20.0396 8.26615C20.2789 7.95756 20.9358 7.90686 21.8426 8.122C22.2191 8.24087 22.5859 8.38825 22.9399 8.56285C24.0562 9.06675 25.6732 9.79724 27.4477 9.79724C28.0319 9.7994 28.6133 9.71486 29.1727 9.5464L29.1961 9.53934C29.5415 9.43236 29.8763 9.29348 30.196 9.1245L30.203 9.12053C30.3339 9.05137 30.432 8.93305 30.4756 8.79159C30.5193 8.65013 30.505 8.49712 30.4358 8.36623C30.3666 8.23533 30.2483 8.13728 30.1068 8.09362C29.9654 8.04997 29.8124 8.0643 29.6815 8.13346C29.4568 8.24998 29.2239 8.34974 28.9845 8.43192C27.8894 8.19606 27.568 7.69922 27.1303 7.02118C26.5938 6.05782 25.7354 5.31399 24.7056 4.92007C24.2678 4.74547 23.8043 4.64375 23.3336 4.61896C23.2623 4.61541 23.1909 4.62559 23.1233 4.64894L17.755 6.50494C18.2065 6.06056 18.624 5.62896 19.019 5.22073C20.7753 3.40485 22.1649 1.9681 24.4719 1.47346C27.3736 1.37956 29.674 2.94504 31.8972 4.46026C33.6695 5.66732 35.3526 6.81442 37.1941 6.9793L37.8369 12.7104C36.9873 12.6174 36.1153 12.5376 35.3676 12.9079H35.3663ZM40.6261 14.2459L39.1925 14.4068C39.1813 14.4077 39.1701 14.4043 39.1614 14.3972C39.1526 14.3902 39.1469 14.3801 39.1453 14.3689L38.1997 5.92698C38.1991 5.92145 38.1997 5.91586 38.2014 5.91055C38.203 5.90525 38.2058 5.90034 38.2094 5.89612C38.2164 5.88728 38.2265 5.88144 38.2376 5.87981L40.3634 5.64175H40.3678C40.3816 5.64214 40.395 5.64625 40.4066 5.65365L40.6605 14.1533C40.6632 14.2045 40.6425 14.2441 40.6275 14.2459H40.6261ZM40.1809 7.67012C40.1972 7.8173 40.1545 7.96495 40.0621 8.08067C39.9697 8.19638 39.8352 8.2707 39.688 8.28732C39.6671 8.28958 39.646 8.29075 39.625 8.29084C39.4878 8.29061 39.3554 8.23988 39.2532 8.14833C39.151 8.05677 39.0861 7.9308 39.0708 7.79444L38.9906 7.07981C38.9813 7.00638 38.9867 6.93183 39.0065 6.86049C39.0262 6.78916 39.06 6.72247 39.1058 6.6643C39.1516 6.60613 39.2084 6.55764 39.2731 6.52165C39.3378 6.48566 39.409 6.46288 39.4826 6.45464C39.5561 6.4464 39.6306 6.45287 39.7016 6.47366C39.7727 6.49445 39.8389 6.52916 39.8964 6.57576C39.9539 6.62236 40.0016 6.67993 40.0366 6.74512C40.0717 6.81031 40.0935 6.88182 40.1007 6.95549L40.1809 7.67012Z" fill="black"/>
</mask>
<g mask="url(#mask0_629_1022)">
<path d="M2.10158 21.0706L10.4778 38.0435C8.93483 39.2926 6.64239 40.4682 6.2897 40.4682C5.93702 40.4682 2.10158 29.6672 -0.763977 23.9361L2.10158 21.0706Z" fill="#41D400"/>
</g>
<circle cx="20.8332" cy="11.5925" r="1.54299" fill="url(#paint0_linear_629_1022)"/>
<defs>
<linearGradient id="paint0_linear_629_1022" x1="20.8332" y1="10.0495" x2="20.8332" y2="13.1355" gradientUnits="userSpaceOnUse">
<stop stop-color="#008ADD"/>
<stop offset="1" stop-color="#41D400"/>
</linearGradient>
</defs>
</svg>
